<?xml version="1.0" standalone="no"?><!DOCTYPE svg PUBLIC "-//W3C//DTD SVG 1.1//EN" "http://www.w3.org/Graphics/SVG/1.1/DTD/svg11.dtd"><svg t="1587541036836" class="icon" viewBox="0 0 1024 1024" version="1.1" xmlns="http://www.w3.org/2000/svg" p-id="15086" xmlns:xlink="http://www.w3.org/1999/xlink" width="200" height="200"><defs><style type="text/css"></style></defs><path d="M512 1008C238 1008 16 786 16 512S238 16 512 16s496 222 496 496-222 496-496 496zM284.2 546l271 271c18.8 18.8 49.2 18.8 67.8 0l34-34c18.8-18.8 18.8-49.2 0-67.8L453.8 512l203.2-203.2c18.8-18.8 18.8-49.2 0-67.8l-34-34c-18.8-18.8-49.2-18.8-67.8 0L284.2 478c-18.8 18.8-18.8 49.2 0 68z"  p-id="15087"></path></svg>
