<?xml version="1.0" standalone="no"?><!DOCTYPE svg PUBLIC "-//W3C//DTD SVG 1.1//EN" "http://www.w3.org/Graphics/SVG/1.1/DTD/svg11.dtd"><svg t="1587106259647" class="icon" viewBox="0 0 1024 1024" version="1.1" xmlns="http://www.w3.org/2000/svg" p-id="14840" xmlns:xlink="http://www.w3.org/1999/xlink" width="200" height="200"><defs><style type="text/css"></style></defs><path d="M512 16C238 16 16 238 16 512s222 496 496 496 496-222 496-496S786 16 512 16z m114.2 700.2L449.8 588c-6.2-4.6-9.8-11.8-9.8-19.4V232c0-13.2 10.8-24 24-24h96c13.2 0 24 10.8 24 24v275.4l127 92.4c10.8 7.8 13 22.8 5.2 33.6l-56.4 77.6c-7.8 10.6-22.8 13-33.6 5.2z" p-id="14841"></path></svg>