<svg xmlns="http://www.w3.org/2000/svg" width="14.539" height="14.539" viewBox="0 0 14.539 14.539"><defs><style>.a{fill:#8a8a99;}.b{fill:none;stroke:#8a8a99;stroke-linecap:round;}</style></defs><g transform="translate(-1892.73 -274.73)"><path class="a" d="M29.3,18.984c-3.866,0-7,2.743-7,6.125a5.865,5.865,0,0,0,2.625,4.778v3.1L28,31.125a8.015,8.015,0,0,0,1.308.11c3.867,0,7-2.743,7-6.125S33.172,18.984,29.3,18.984ZM31.493,27.3H27.118a.438.438,0,0,1,0-.877h4.375a.438.438,0,0,1,0,.877Zm.875-2.627H26.243a.438.438,0,1,1,0-.877h6.125a.438.438,0,0,1,0,.877Z" transform="translate(1870.695 256.016)"/><line class="b" x2="13.125" y2="13.125" transform="translate(1893.438 275.438)"/></g></svg>