<?xml version="1.0" standalone="no"?><!DOCTYPE svg PUBLIC "-//W3C//DTD SVG 1.1//EN" "http://www.w3.org/Graphics/SVG/1.1/DTD/svg11.dtd"><svg t="1590394924273" class="icon" viewBox="0 0 1152 1024" version="1.1" xmlns="http://www.w3.org/2000/svg" p-id="14840" xmlns:xlink="http://www.w3.org/1999/xlink" width="225" height="200"><defs><style type="text/css"></style></defs><path d="M832 384c0-176.8-186.2-320-416-320S0 207.2 0 384c0 68.6 28.2 131.8 76 184-26.8 60.4-71 108.4-71.6 109-4.4 4.6-5.6 11.4-3 17.4S9.6 704 16 704c73.2 0 133.8-24.6 177.4-50 64.4 31.4 140.6 50 222.6 50 229.8 0 416-143.2 416-320z m244 440c47.8-52 76-115.4 76-184 0-133.8-107-248.4-258.6-296.2 1.8 13.2 2.6 26.6 2.6 40.2 0 211.8-215.4 384-480 384-21.6 0-42.6-1.6-63.4-3.8C415.6 879.2 563.6 960 736 960c82 0 158.2-18.4 222.6-50 43.6 25.4 104.2 50 177.4 50 6.4 0 12.2-3.8 14.6-9.6 2.6-5.8 1.4-12.6-3-17.4-0.6-0.6-44.8-48.4-71.6-109z" p-id="14841"></path></svg>
