<?xml version="1.0" standalone="no"?><!DOCTYPE svg PUBLIC "-//W3C//DTD SVG 1.1//EN" "http://www.w3.org/Graphics/SVG/1.1/DTD/svg11.dtd"><svg t="1590651240488" class="icon" viewBox="0 0 1280 1024" version="1.1" xmlns="http://www.w3.org/2000/svg" p-id="29152" xmlns:xlink="http://www.w3.org/1999/xlink" width="250" height="200"><defs><style type="text/css"></style></defs><path d="M128 480c0 99.2 42.8 190 114 261.4-25.2 100.6-108.6 190.4-109.6 191.6-4.4 4.6-5.6 11.4-3 17.4 2.6 5.8 8.2 9.6 14.6 9.6 132.6 0 232-63.6 281.2-102.8 65.4 24.6 138 38.8 214.8 38.8 54.8 0 107.4-7.2 156.8-20L145.8 372.8c-11.2 34.2-17.8 70-17.8 107.2z m1139.6 436.2l-228.8-176.8C1109.2 668.2 1152 578.4 1152 480c0-229.8-229.2-416-512-416-130.2 0-248.4 40.2-338.8 105.4L91 6.8C77-4 57-1.6 46 12.4L6.8 62.8c-10.8 14-8.4 34 5.6 44.8l1176.8 909.4c14 10.8 34 8.4 45-5.6l39.2-50.6c10.8-13.6 8.2-33.8-5.8-44.6z" p-id="29153"></path></svg>