<?xml version="1.0" standalone="no"?><!DOCTYPE svg PUBLIC "-//W3C//DTD SVG 1.1//EN" "http://www.w3.org/Graphics/SVG/1.1/DTD/svg11.dtd"><svg t="1589349321670" class="icon" viewBox="0 0 1024 1024" version="1.1" xmlns="http://www.w3.org/2000/svg" p-id="29149" xmlns:xlink="http://www.w3.org/1999/xlink" width="200" height="200"><defs><style type="text/css"></style></defs><path d="M32 576c-17.68 0-32 14.32-32 32v64c0 17.68 14.32 32 32 32h224v-128H32z m672-304V0H304c-26.6 0-48 21.4-48 48v528h255.98v-130.36c0-28.56 34.58-42.82 54.72-22.54l191.4 192.86c13.2 13.3 13.2 34.78 0 48.08l-191.4 192.84c-20.12 20.28-54.72 6.02-54.72-22.54V704H256v272c0 26.6 21.4 48 48 48h672c26.6 0 48-21.4 48-48V320H752c-26.4 0-48-21.6-48-48z m306-62L814.2 14c-9-9-21.2-14-34-14H768v256h256v-12.2c0-12.6-5-24.8-14-33.8z"  p-id="29150"></path></svg>
