<?xml version="1.0" standalone="no"?><!DOCTYPE svg PUBLIC "-//W3C//DTD SVG 1.1//EN" "http://www.w3.org/Graphics/SVG/1.1/DTD/svg11.dtd"><svg t="1589957300935" class="icon" viewBox="0 0 1024 1024" version="1.1" xmlns="http://www.w3.org/2000/svg" p-id="14843" xmlns:xlink="http://www.w3.org/1999/xlink" width="200" height="200"><defs><style type="text/css"></style></defs><path d="M809.139447 225.282593v-21.649984c0-87.223935-81.03994-153.381886-166.077877-131.091903-51.257962-98.999927-188.17986-94.89993-235.963825 1.493999C324.537807 52.912721 242.287868 115.890674 242.287868 204.000609v252.259812c-39.90597-14.853989-86.615936-10.135992-124.165908 17.741987-58.709956 43.591968-71.587947 126.665906-29.099979 186.305862L328.959803 997.13802a63.999953 63.999953 0 0 0 52.123962 26.86398h445.793669c29.807978 0 55.669959-20.577985 62.363954-49.625963l60.367955-261.915806A407.273698 407.273698 0 0 0 959.999335 621.128299V358.000494c0-81.23994-71.045947-143.983893-150.859888-132.717901z m54.853959 395.843706c0 23.461983-2.667998 46.937965-7.929994 69.771948L801.413453 928.000071h-403.839701L167.181923 604.606311c-28.877979-40.53997 30.045978-85.551937 58.787957-45.209966l54.25596 76.157943c17.989987 25.251981 58.061957 12.573991 58.061956-18.565986V204.000609c0-51.289962 73.141946-49.619963 73.141946 1.381999V512.00038c0 17.673987 14.325989 31.999976 31.999976 31.999976h13.71199c17.673987 0 31.999976-14.325989 31.999976-31.999976V134.000661c0-51.325962 73.141946-49.619963 73.141946 1.381999V512.00038c0 17.673987 14.325989 31.999976 31.999976 31.999976h13.71199c17.673987 0 31.999976-14.325989 31.999977-31.999976V202.25061c0-51.343962 73.139946-49.619963 73.139945 1.381999V512.00038c0 17.673987 14.325989 31.999976 31.999976 31.999976h13.71399c17.673987 0 31.999976-14.325989 31.999977-31.999976v-152.617887c0-52.483961 73.139946-51.279962 73.139945-1.381999v263.125805z" fill="" p-id="14844"></path></svg>