<?xml version="1.0" standalone="no"?><!DOCTYPE svg PUBLIC "-//W3C//DTD SVG 1.1//EN" "http://www.w3.org/Graphics/SVG/1.1/DTD/svg11.dtd"><svg t="1587008668114" class="icon" viewBox="0 0 1024 1024" version="1.1" xmlns="http://www.w3.org/2000/svg" p-id="17131" xmlns:xlink="http://www.w3.org/1999/xlink" width="200" height="200"><defs><style type="text/css"></style></defs><path d="M64 168V88c0-17.674 14.326-32 32-32h832c17.674 0 32 14.326 32 32v80c0 17.674-14.326 32-32 32H96c-17.674 0-32-14.326-32-32z m352 288h512c17.674 0 32-14.326 32-32v-80c0-17.674-14.326-32-32-32H416c-17.674 0-32 14.326-32 32v80c0 17.674 14.326 32 32 32zM96 968h832c17.674 0 32-14.326 32-32v-80c0-17.674-14.326-32-32-32H96c-17.674 0-32 14.326-32 32v80c0 17.674 14.326 32 32 32z m320-256h512c17.674 0 32-14.326 32-32v-80c0-17.674-14.326-32-32-32H416c-17.674 0-32 14.326-32 32v80c0 17.674 14.326 32 32 32z m-105.374-222.626l-192-191.968C98.532 277.304 64 291.552 64 320.032v383.95c0 28.658 34.65 42.608 54.626 22.626l192-191.984c12.498-12.494 12.498-32.754 0-45.25z"  p-id="17132"></path></svg>
