<?xml version="1.0" standalone="no"?><!DOCTYPE svg PUBLIC "-//W3C//DTD SVG 1.1//EN" "http://www.w3.org/Graphics/SVG/1.1/DTD/svg11.dtd"><svg t="1587436844363" class="icon" viewBox="0 0 1280 1024" version="1.1" xmlns="http://www.w3.org/2000/svg" p-id="14963" xmlns:xlink="http://www.w3.org/1999/xlink" width="250" height="200"><defs><style type="text/css"></style></defs><path d="M1267.631681 916.193987l-315.597929-243.918399C977.213587 624.255903 991.99349 570.016259 991.99349 511.99664v-95.99937c0-17.679884-14.319906-31.99979-31.99979-31.99979h-31.99979c-17.679884 0-31.99979 14.319906-31.99979 31.99979v95.99937c0 35.839765-7.919948 69.599543-21.439859 100.399341l-53.099652-41.039731c6.199959-18.799877 10.559931-38.439748 10.559931-59.33961V191.99874c0-106.039304-85.959436-191.99874-191.99874-191.99874s-191.99874 85.959436-191.99874 191.99874v90.719405L90.939403 6.739956C76.979495-4.099973 56.859627-1.59999 46.019698 12.359919L6.739956 62.899587C-4.099973 76.839496-1.59999 96.939364 12.359919 107.799293l1176.712278 909.454031c13.959908 10.859929 34.059776 8.339945 44.919705-5.619963l39.279742-50.539668c10.819929-13.939909 8.319945-34.039777-5.639963-44.899706zM799.99475 927.99391h-111.999265v-67.539557c23.319847-3.199979 45.6997-9.07994 67.339558-16.619891l-100.219342-77.459491c-13.419912 0.799995-26.819824 1.739989-40.699733 0.399997-111.699267-10.899928-197.478704-97.259362-222.358541-203.698663L287.99811 482.616833v13.69991c0 179.278823 127.93916 339.097775 303.998005 363.377615V927.99391h-111.999265c-17.679884 0-31.99979 14.319906-31.99979 31.99979v31.99979c0 17.679884 14.319906 31.99979 31.99979 31.99979h319.9979c17.679884 0 31.99979-14.319906 31.99979-31.99979v-31.99979c0-17.679884-14.319906-31.99979-31.99979-31.99979z"  p-id="14964"></path></svg>
