<?xml version="1.0" standalone="no"?><!DOCTYPE svg PUBLIC "-//W3C//DTD SVG 1.1//EN" "http://www.w3.org/Graphics/SVG/1.1/DTD/svg11.dtd"><svg t="1590394444162" class="icon" viewBox="0 0 1024 1024" version="1.1" xmlns="http://www.w3.org/2000/svg" p-id="22506" xmlns:xlink="http://www.w3.org/1999/xlink" width="200" height="200"><defs><style type="text/css"></style></defs><path d="M951.165621 442.307999a441.148967 441.148967 0 0 0-443.516951-442.236959A441.148967 441.148967 0 0 0 64.00372 442.244C64.00372 634.882675 187.330872 798.721549 359.745687 860.161126 265.346336 892.800902 203.65076 954.368479 203.65076 1024h595.579905c0-69.695521-57.471605-131.199098-147.838983-163.838874 176.702785-61.439578 299.837939-225.278451 299.837938-417.853127zM515.840614 753.665859c-127.359124 0-234.11039-106.623267-234.110391-233.534395S388.609488 286.725069 515.840614 286.725069a233.470395 233.470395 0 0 1 0 467.004789z m-8.255944-335.869691c-61.631576 0-114.87921 53.311633-114.87921 114.623212a114.559212 114.559212 0 0 0 114.87921 114.687211 114.623212 114.623212 0 1 0 0-229.310423z" p-id="22507"></path></svg>