<?xml version="1.0" standalone="no"?><!DOCTYPE svg PUBLIC "-//W3C//DTD SVG 1.1//EN" "http://www.w3.org/Graphics/SVG/1.1/DTD/svg11.dtd"><svg t="1587008528329" class="icon" viewBox="0 0 1024 1024" version="1.1" xmlns="http://www.w3.org/2000/svg" p-id="15040" xmlns:xlink="http://www.w3.org/1999/xlink" width="200" height="200"><defs><style type="text/css"></style></defs><path d="M64.0005 168V88c0-17.674 14.326-32 32-32h832c17.674 0 32 14.326 32 32v80c0 17.674-14.326 32-32 32H96.0005c-17.674 0-32-14.326-32-32z m416 288h448c17.674 0 32-14.326 32-32v-80c0-17.674-14.326-32-32-32H480.0005c-17.674 0-32 14.326-32 32v80c0 17.674 14.326 32 32 32zM96.0005 968h832c17.674 0 32-14.326 32-32v-80c0-17.674-14.326-32-32-32H96.0005c-17.674 0-32 14.326-32 32v80c0 17.674 14.326 32 32 32z m384-256h448c17.674 0 32-14.326 32-32v-80c0-17.674-14.326-32-32-32H480.0005c-17.674 0-32 14.326-32 32v80c0 17.674 14.326 32 32 32zM73.3745 534.626l192 191.968C285.4685 746.696 320.0005 732.448 320.0005 703.968V320.016c0-28.658-34.65-42.608-54.626-22.626l-192 191.984c-12.498 12.496-12.498 32.756 0 45.252z" p-id="15041"></path></svg>
