<?xml version="1.0" standalone="no"?><!DOCTYPE svg PUBLIC "-//W3C//DTD SVG 1.1//EN" "http://www.w3.org/Graphics/SVG/1.1/DTD/svg11.dtd"><svg t="1587376200907" class="icon" viewBox="0 0 1024 1024" version="1.1" xmlns="http://www.w3.org/2000/svg" p-id="21728" xmlns:xlink="http://www.w3.org/1999/xlink" width="200" height="200"><defs><style type="text/css"></style></defs><path d="M512 251.733333a89.6 89.6 0 1 1 0.021333 179.178667A89.6 89.6 0 0 1 512 251.733333m0 384c126.933333 0 260.266667 62.08 260.266667 89.6v46.933334H251.733333V725.333333c0-27.52 133.333333-89.6 260.266667-89.6M512 170.666667c-94.293333 0-170.666667 76.373333-170.666667 170.666666 0 94.08 76.373333 170.666667 170.666667 170.666667s170.666667-76.586667 170.666667-170.666667c0-94.293333-76.373333-170.666667-170.666667-170.666666z m0 384c-113.706667 0-341.333333 56.96-341.333333 170.666666v128h682.666666v-128c0-113.706667-227.626667-170.666667-341.333333-170.666666z" p-id="21729"></path></svg>