<?xml version="1.0" standalone="no"?><!DOCTYPE svg PUBLIC "-//W3C//DTD SVG 1.1//EN" "http://www.w3.org/Graphics/SVG/1.1/DTD/svg11.dtd"><svg t="1587527788927" class="icon" viewBox="0 0 1024 1024" version="1.1" xmlns="http://www.w3.org/2000/svg" p-id="14840" xmlns:xlink="http://www.w3.org/1999/xlink" width="200" height="200"><defs><style type="text/css"></style></defs><path d="M512 16C238 16 16 238 16 512s222 496 496 496 496-222 496-496S786 16 512 16z m288 552c0 13.2-10.8 24-24 24h-184v184c0 13.2-10.8 24-24 24h-112c-13.2 0-24-10.8-24-24v-184h-184c-13.2 0-24-10.8-24-24v-112c0-13.2 10.8-24 24-24h184v-184c0-13.2 10.8-24 24-24h112c13.2 0 24 10.8 24 24v184h184c13.2 0 24 10.8 24 24v112z"  p-id="14841"></path></svg>
