<?xml version="1.0" standalone="no"?><!DOCTYPE svg PUBLIC "-//W3C//DTD SVG 1.1//EN" "http://www.w3.org/Graphics/SVG/1.1/DTD/svg11.dtd"><svg t="1592301831851" class="icon" viewBox="0 0 1024 1024" version="1.1" xmlns="http://www.w3.org/2000/svg" p-id="14840" xmlns:xlink="http://www.w3.org/1999/xlink" width="200" height="200"><defs><style type="text/css"></style></defs><path d="M994 546L658 882c-30 30-82 9-82-34v-192H304c-26.6 0-48-21.4-48-48v-192c0-26.6 21.4-48 48-48h272V176c0-42.8 51.8-64 82-34l336 336c18.6 18.8 18.6 49.2 0 68zM384 872v-80c0-13.2-10.8-24-24-24H192c-35.4 0-64-28.6-64-64V320c0-35.4 28.6-64 64-64h168c13.2 0 24-10.8 24-24V152c0-13.2-10.8-24-24-24H192c-106 0-192 86-192 192v384c0 106 86 192 192 192h168c13.2 0 24-10.8 24-24z" fill="" p-id="14841"></path></svg>