<?xml version="1.0" standalone="no"?><!DOCTYPE svg PUBLIC "-//W3C//DTD SVG 1.1//EN" "http://www.w3.org/Graphics/SVG/1.1/DTD/svg11.dtd"><svg t="1586943667002" class="icon" viewBox="0 0 1024 1024" version="1.1" xmlns="http://www.w3.org/2000/svg" p-id="3825" xmlns:xlink="http://www.w3.org/1999/xlink" width="200" height="200"><defs><style type="text/css"></style></defs><path d="M447.326316 161.684211H210.189474c0 26.947368 5.389474 48.505263 5.389473 70.063157v113.178948h26.947369c5.389474-32.336842 5.389474-53.894737 10.778947-75.452632 5.389474-16.168421 16.168421-32.336842 26.947369-43.115789 10.778947-10.778947 21.557895-21.557895 37.726315-21.557895 16.168421-5.389474 37.726316-5.389474 64.673685-5.389474h80.842105v549.726316c0 16.168421 0 32.336842-5.389474 43.11579 0 10.778947-5.389474 21.557895-16.168421 26.947368-5.389474 5.389474-16.168421 10.778947-32.336842 16.168421-16.168421 5.389474-32.336842 5.389474-53.894737 5.389474v26.947368h285.642105v-26.947368c-21.557895 0-43.115789-5.389474-59.28421-5.389474-16.168421 0-26.947368-5.389474-32.336842-10.778947-5.389474-5.389474-10.778947-10.778947-10.778948-21.557895 0-5.389474-5.389474-16.168421-5.389473-26.947368V194.021053h86.231579c26.947368 0 48.505263 0 64.673684 5.389473 16.168421 5.389474 32.336842 10.778947 37.726316 26.947369 32.336842 10.778947 37.726316 26.947368 43.115789 43.115789 5.389474 16.168421 10.778947 43.115789 16.168421 64.673684h26.947369v-48.505263-43.115789c0-16.168421 0-26.947368 5.389473-43.11579 0-16.168421 0-32.336842 5.389474-48.505263h-253.305263c-26.947368 10.778947-48.505263 10.778947-64.673684 10.778948h-53.894737z" p-id="3826"></path></svg>