<?xml version="1.0" standalone="no"?><!DOCTYPE svg PUBLIC "-//W3C//DTD SVG 1.1//EN" "http://www.w3.org/Graphics/SVG/1.1/DTD/svg11.dtd"><svg t="1587436899262" class="icon" viewBox="0 0 1280 1024" version="1.1" xmlns="http://www.w3.org/2000/svg" p-id="15330" xmlns:xlink="http://www.w3.org/1999/xlink" width="250" height="200"><defs><style type="text/css"></style></defs><path d="M1267.6 916.2l-110-85c30.8-2.8 58.4-27.4 58.4-62.2v-514c0-51-58.2-80.8-100.8-51.6L896 354.6v274.4l-64-49.4v-356c0-52.8-42.8-95.6-95.6-95.6H247.8L91 6.8C77-4 57-1.6 46 12.4L6.8 62.8c-10.8 14-8.4 34 5.6 44.8L85.4 164 832 741.2l357 276c14 10.8 34 8.4 45-5.6l39.2-50.6c11-13.8 8.4-34-5.6-44.8zM64 800.4c0 52.8 42.8 95.6 95.6 95.6h576.8c22.4 0 42.8-8 59.2-21L64 309.4v491z" fill="" p-id="15331"></path></svg>